<?xml version="1.0" encoding="utf-8"?>
<!-- Generator: Adobe Illustrator 22.0.1, SVG Export Plug-In . SVG Version: 6.00 Build 0)  -->
<svg version="1.1" id="Layer_1" xmlns="http://www.w3.org/2000/svg" xmlns:xlink="http://www.w3.org/1999/xlink" x="0px" y="0px"
	 viewBox="0 0 566.9 125.1" style="enable-background:new 0 0 566.9 125.1;" xml:space="preserve">
<style type="text/css">
	.st0{fill:#FFCC00;}
	.st1{fill:#D3072A;}
</style>
<g>
	<polygon class="st0" points="566.9,0 566.9,125.1 0,125.1 0,0 566.9,0 	"/>
	<path class="st1" d="M99.7,22.5L81.6,47.1c0,0,93.9,0,98.7,0c5,0,4.9,1.9,2.5,5.2c-2.5,3.4-6.6,9.2-9.1,12.6
		c-1.3,1.7-3.6,4.9,4.1,4.9c8.1,0,40.4,0,40.4,0s6.5-8.9,12-16.3c7.4-10.1,0.6-31-25.9-31C180.4,22.5,99.7,22.5,99.7,22.5L99.7,22.5
		z"/>
	<path class="st1" d="M74.3,102.6l36.4-49.4c0,0,40.3,0,45.1,0c5,0,4.9,1.9,2.5,5.2c-2.5,3.4-6.7,9.1-9.2,12.5
		c-1.3,1.7-3.6,4.9,4.1,4.9c8.1,0,60.5,0,60.5,0c-5,6.9-21.3,26.8-50.6,26.8C139.2,102.6,74.3,102.6,74.3,102.6L74.3,102.6z"/>
	<path class="st1" d="M282.6,75.8l-19.7,26.8h-52c0,0,19.7-26.8,19.7-26.8L282.6,75.8L282.6,75.8z"/>
	<polygon class="st1" points="362.3,69.7 235,69.7 269.9,22.5 321.9,22.5 301.9,49.6 325.2,49.6 345.1,22.5 397.1,22.5 362.3,69.7 	
		"/>
	<path class="st1" d="M357.9,75.8l-19.7,26.8h-52c0,0,19.7-26.8,19.7-26.8H357.9L357.9,75.8z"/>
	<polygon class="st1" points="0,86.4 76.7,86.4 72.5,92.1 0,92.1 0,86.4 	"/>
	<polygon class="st1" points="0,75.8 84.5,75.8 80.3,81.5 0,81.5 0,75.8 	"/>
	<polygon class="st1" points="0,97 68.9,97 64.7,102.6 0,102.6 0,97 	"/>
	<polygon class="st1" points="566.9,92.1 490.6,92.1 494.7,86.4 566.9,86.4 566.9,92.1 	"/>
	<polygon class="st1" points="566.9,102.6 482.8,102.6 487,97 566.9,97 566.9,102.6 	"/>
	<polygon class="st1" points="502.5,75.8 566.9,75.8 566.9,81.5 498.3,81.5 502.5,75.8 	"/>
	<path class="st1" d="M469.2,22.5l-34.8,47.3h-55.1c0,0,34.8-47.3,34.8-47.3H469.2L469.2,22.5z"/>
	<path class="st1" d="M374.8,75.8c0,0-3.8,5.2-5.7,7.7c-6.5,8.8-0.8,19.1,20.6,19.1c24.6,0,83.6,0,83.6,0L493,75.8H374.8L374.8,75.8
		z"/>
</g>
</svg>
