<svg id="svg2" xmlns="http://www.w3.org/2000/svg" viewBox="0 0 139 58.85"><defs><style>.cls-1{fill:#3f3f42;}.cls-2{fill:#d30032;}</style></defs><title>dpd</title><path id="path7" class="cls-1" d="M91.2,46.65a36,36,0,0,1-8.8,1c-7.5,0-12.4-3.9-12.4-11,0-6.8,4.6-11.2,11.3-11.2a10,10,0,0,1,4.1.7v-9.8h5.8Zm-5.8-15.5a9.21,9.21,0,0,0-3.6-.7,5.51,5.51,0,0,0-5.9,5.9c0,4,2.5,6.3,6.7,6.3a14.17,14.17,0,0,0,2.8-.2ZM139,46.65a36.23,36.23,0,0,1-8.9,1c-7.4,0-12.4-3.9-12.4-11,0-6.8,4.6-11.2,11.3-11.2a9.74,9.74,0,0,1,4.1.7v-9.8H139Zm-5.9-15.5a8.69,8.69,0,0,0-3.5-.7c-3.6,0-5.9,2.2-5.9,5.9,0,4,2.6,6.3,6.7,6.3a14.68,14.68,0,0,0,2.8-.2V31.15Zm-32.7,0a9.89,9.89,0,0,1,3.5-.5c3.6,0,6.1,2,6.1,5.7,0,4.3-2.8,6.3-6.4,6.4v5h.3c7.6,0,12.1-4.1,12.1-11.5,0-6.7-4.8-10.7-11.9-10.7a25.92,25.92,0,0,0-9.5,1.8v28.5h5.9Z"/><path class="cls-2" d="M1.9,13.05,27,27.23l.34,22.49s.17,1.89-2,1.89S23,50.08,23,50.08V31L0,17.48V43.9l25.08,15L49.9,44.18V17.66L35.65,26.19s-1.28,1.11-3-.6a2,2,0,0,1,.27-3.15l16-9.39L25.08,0,1.9,13.05Z"/></svg>