<?xml version="1.0" encoding="UTF-8"?>
<svg xmlns="http://www.w3.org/2000/svg" xmlns:xlink="http://www.w3.org/1999/xlink" width="285pt" height="110pt" viewBox="0 0 285 110" version="1.1">
<g id="surface1">
<path style=" stroke:none;fill-rule:evenodd;fill:rgb(92.199707%,12.5%,17.999268%);fill-opacity:1;" d="M 1.085938 0.746094 L 284.367188 0.746094 L 284.367188 98.902344 L 1.085938 98.902344 L 1.085938 0.746094 "/>
<path style=" stroke:none;fill-rule:nonzero;fill:rgb(74.899292%,15.299988%,18.399048%);fill-opacity:1;" d="M 55.925781 34.589844 C 55.410156 35.5 54.875 36.421875 54.34375 37.335938 C 53.804688 38.265625 53.269531 39.195313 52.714844 40.132813 C 51.964844 40.097656 51.210938 40.066406 50.457031 40.03125 C 51.894531 37.570313 53.332031 35.148438 54.722656 32.765625 C 56.09375 30.417969 57.464844 28.101563 58.792969 25.824219 C 59.8125 25.789063 60.832031 25.757813 61.910156 25.71875 C 63.296875 25.675781 64.140625 26 64.4375 26.703125 C 64.738281 27.417969 64.476563 28.519531 63.632813 30.007813 C 63.050781 31.03125 62.421875 31.882813 61.71875 32.570313 C 61.011719 33.261719 60.273438 33.773438 59.496094 34.113281 C 58.71875 34.449219 57.90625 34.613281 57.105469 34.601563 C 56.707031 34.597656 56.328125 34.59375 55.925781 34.589844 Z M 59.769531 27.976563 C 59.347656 28.679688 58.953125 29.394531 58.539063 30.097656 C 58.121094 30.816406 57.707031 31.53125 57.296875 32.25 C 57.441406 32.25 57.609375 32.25 57.757813 32.25 C 58.257813 32.25 58.6875 32.191406 59.0625 32.082031 C 59.4375 31.96875 59.804688 31.738281 60.144531 31.40625 C 60.488281 31.066406 60.847656 30.601563 61.179688 30.015625 C 61.660156 29.164063 61.820313 28.605469 61.613281 28.34375 C 61.40625 28.070313 60.941406 27.949219 60.179688 27.96875 C 60.035156 27.96875 59.890625 27.972656 59.769531 27.976563 Z M 67.996094 37.335938 C 66.445313 37.296875 64.875 37.253906 63.363281 37.214844 C 62.402344 38.296875 61.453125 39.390625 60.496094 40.480469 C 59.617188 40.441406 58.734375 40.402344 57.875 40.363281 C 60.152344 37.75 62.433594 35.160156 64.699219 32.59375 C 66.945313 30.046875 69.179688 27.523438 71.398438 25.023438 C 72.066406 25 72.738281 24.976563 73.410156 24.953125 C 72.894531 27.4375 72.378906 29.988281 71.847656 32.605469 C 71.300781 35.296875 70.734375 38.066406 70.171875 40.914063 C 69.179688 40.875 68.234375 40.832031 67.269531 40.785156 C 67.511719 39.625 67.753906 38.472656 67.996094 37.335938 Z M 68.617188 34.8125 C 68.84375 33.867188 69.050781 32.933594 69.273438 32.007813 C 69.496094 31.09375 69.703125 30.183594 69.921875 29.28125 C 69.921875 29.28125 69.902344 29.28125 69.902344 29.28125 C 69.160156 30.191406 68.402344 31.105469 67.667969 32.011719 C 66.921875 32.929688 66.179688 33.847656 65.4375 34.769531 C 66.46875 34.785156 67.542969 34.796875 68.617188 34.8125 Z M 80.394531 34.109375 C 80.515625 35.28125 80.664063 36.46875 80.808594 37.675781 C 80.957031 38.902344 81.109375 40.148438 81.261719 41.414063 C 80.015625 41.359375 78.789063 41.300781 77.566406 41.25 C 77.53125 40.066406 77.46875 38.898438 77.425781 37.746094 C 77.386719 36.613281 77.347656 35.492188 77.320313 34.386719 C 77.300781 34.386719 77.277344 34.386719 77.277344 34.386719 C 76.714844 35.480469 76.15625 36.589844 75.597656 37.695313 C 75.035156 38.820313 74.449219 39.945313 73.890625 41.082031 C 72.921875 41.039063 71.976563 40.996094 71.050781 40.957031 C 72.46875 38.191406 73.855469 35.476563 75.242188 32.824219 C 76.609375 30.210938 77.953125 27.652344 79.269531 25.140625 C 80.511719 25.097656 81.777344 25.054688 83.078125 25.011719 C 84.078125 24.976563 84.886719 25.109375 85.464844 25.398438 C 86.066406 25.695313 86.425781 26.183594 86.503906 26.875 C 86.582031 27.574219 86.335938 28.484375 85.792969 29.597656 C 85.453125 30.292969 84.984375 30.960938 84.429688 31.605469 C 83.875 32.257813 83.226563 32.800781 82.519531 33.257813 C 81.828125 33.699219 81.101563 33.988281 80.394531 34.109375 Z M 80.824219 27.46875 C 80.417969 28.246094 80.003906 29.023438 79.605469 29.808594 C 79.207031 30.59375 78.804688 31.394531 78.390625 32.191406 C 78.515625 32.191406 78.640625 32.191406 78.765625 32.191406 C 79.644531 32.1875 80.410156 32.011719 81.0625 31.648438 C 81.71875 31.289063 82.269531 30.640625 82.730469 29.726563 C 83.1875 28.820313 83.273438 28.210938 82.976563 27.90625 C 82.667969 27.585938 82.078125 27.441406 81.214844 27.460938 C 81.070313 27.464844 80.949219 27.464844 80.824219 27.46875 Z M 101.234375 24.917969 C 100.644531 26.207031 100.050781 27.511719 99.472656 28.828125 C 99.257813 28.269531 98.855469 27.839844 98.324219 27.542969 C 97.78125 27.238281 97.15625 27.101563 96.480469 27.113281 C 95.472656 27.136719 94.492188 27.429688 93.488281 27.96875 C 92.46875 28.519531 91.59375 29.242188 90.773438 30.148438 C 89.953125 31.050781 89.304688 31.980469 88.855469 32.929688 C 88.410156 33.878906 88.164063 34.804688 88.140625 35.703125 C 88.117188 36.617188 88.328125 37.363281 88.816406 37.953125 C 89.3125 38.542969 90.058594 38.859375 91.039063 38.890625 C 91.71875 38.910156 92.507813 38.757813 93.375 38.421875 C 94.242188 38.085938 95.058594 37.632813 95.78125 37.078125 C 95.15625 38.488281 94.527344 39.910156 93.894531 41.351563 C 92.074219 42.03125 90.570313 42.332031 89.429688 42.28125 C 88.269531 42.222656 87.28125 41.925781 86.496094 41.382813 C 85.730469 40.855469 85.207031 40.144531 84.882813 39.253906 C 84.566406 38.378906 84.472656 37.390625 84.589844 36.300781 C 84.707031 35.222656 85.042969 34.113281 85.589844 32.984375 C 86.152344 31.808594 86.875 30.699219 87.769531 29.644531 C 88.660156 28.59375 89.644531 27.664063 90.742188 26.847656 C 91.832031 26.03125 92.992188 25.378906 94.207031 24.890625 C 95.441406 24.398438 96.644531 24.128906 97.84375 24.089844 C 99.148438 24.042969 100.273438 24.316406 101.234375 24.917969 Z M 112.074219 26.964844 C 110.019531 27.007813 107.984375 27.050781 105.988281 27.09375 C 105.421875 28.367188 104.867188 29.648438 104.3125 30.941406 C 106.246094 30.933594 108.222656 30.921875 110.199219 30.914063 C 109.769531 31.949219 109.34375 32.992188 108.914063 34.039063 C 106.941406 34.023438 104.949219 34.007813 103.015625 33.988281 C 102.652344 34.816406 102.316406 35.644531 101.964844 36.472656 C 101.605469 37.3125 101.25 38.148438 100.902344 38.996094 C 102.925781 39.058594 105.011719 39.121094 107.097656 39.183594 C 106.65625 40.289063 106.214844 41.398438 105.789063 42.515625 C 102.414063 42.363281 99.125 42.214844 95.921875 42.074219 C 97.285156 38.945313 98.597656 35.886719 99.90625 32.902344 C 101.183594 29.980469 102.472656 27.121094 103.71875 24.320313 C 106.835938 24.214844 110.03125 24.105469 113.292969 24 C 112.902344 24.980469 112.488281 25.96875 112.074219 26.964844 Z M 119.75 23.78125 C 118.78125 26.257813 117.777344 28.78125 116.789063 31.355469 C 115.78125 33.976563 114.746094 36.65625 113.722656 39.386719 C 115.660156 39.441406 117.597656 39.503906 119.640625 39.5625 C 119.21875 40.726563 118.8125 41.902344 118.386719 43.082031 C 114.945313 42.925781 111.613281 42.777344 108.410156 42.632813 C 109.679688 39.328125 110.945313 36.09375 112.203125 32.945313 C 113.433594 29.863281 114.660156 26.855469 115.859375 23.914063 C 117.121094 23.871094 118.40625 23.824219 119.75 23.78125 "/>
<path style=" stroke:none;fill-rule:evenodd;fill:rgb(74.899292%,15.299988%,18.399048%);fill-opacity:1;" d="M 126.949219 55.765625 C 127.527344 52.828125 128.09375 49.933594 128.652344 47.089844 C 129.203125 44.292969 129.738281 41.53125 130.273438 38.820313 C 130.796875 39.792969 131.328125 40.78125 131.867188 41.773438 C 133.609375 40.449219 135.351563 39.128906 137.085938 37.804688 C 135.453125 40.699219 133.789063 43.628906 132.117188 46.597656 C 130.421875 49.613281 128.695313 52.671875 126.949219 55.765625 Z M 128.832031 36.136719 C 126.746094 35.5625 124.6875 34.984375 122.65625 34.425781 C 120.644531 33.871094 118.648438 33.3125 116.679688 32.765625 C 119.410156 32.167969 122.167969 31.5625 124.929688 30.960938 C 127.703125 30.355469 130.503906 29.742188 133.3125 29.128906 C 131.355469 30.589844 129.398438 32.058594 127.433594 33.535156 C 127.894531 34.398438 128.355469 35.265625 128.832031 36.136719 Z M 133.847656 28.726563 C 135.488281 25.917969 137.109375 23.152344 138.707031 20.421875 C 140.28125 17.726563 141.839844 15.0625 143.375 12.433594 C 142.957031 14.894531 142.527344 17.390625 142.097656 19.917969 C 141.65625 22.496094 141.207031 25.113281 140.753906 27.773438 C 140.15625 26.800781 139.566406 25.839844 138.984375 24.878906 C 137.277344 26.160156 135.5625 27.445313 133.847656 28.726563 Z M 141.699219 29.316406 C 143.992188 29.90625 146.320313 30.492188 148.671875 31.085938 C 151.046875 31.679688 153.460938 32.285156 155.902344 32.894531 C 153.011719 33.503906 150.140625 34.113281 147.285156 34.710938 C 144.449219 35.304688 141.628906 35.902344 138.816406 36.488281 C 140.476563 35.230469 142.132813 33.980469 143.777344 32.722656 C 143.078125 31.582031 142.382813 30.445313 141.699219 29.316406 "/>
<path style=" stroke:none;fill-rule:evenodd;fill:rgb(74.899292%,15.299988%,18.399048%);fill-opacity:1;" d="M 131.089844 33.136719 C 131.105469 33.125 131.125 33.109375 131.144531 33.097656 C 133.15625 31.679688 135.164063 30.253906 137.167969 28.832031 C 137.175781 28.84375 137.183594 28.855469 137.195313 28.871094 C 138.152344 30.328125 139.128906 31.800781 140.128906 33.289063 C 140.128906 33.292969 140.128906 33.292969 140.132813 33.292969 C 140.132813 33.296875 140.132813 33.296875 140.132813 33.296875 C 138.074219 34.761719 136.023438 36.230469 133.957031 37.703125 C 133.953125 37.707031 133.949219 37.707031 133.949219 37.707031 C 133.945313 37.714844 133.945313 37.714844 133.945313 37.714844 C 132.980469 36.164063 132.027344 34.644531 131.089844 33.136719 Z M 137.167969 28.832031 C 136.492188 30.058594 135.820313 31.28125 135.144531 32.511719 C 135.820313 31.28125 136.492188 30.058594 137.167969 28.832031 Z M 135.140625 32.542969 C 134.746094 34.246094 134.351563 35.972656 133.949219 37.707031 C 134.355469 35.972656 134.753906 34.246094 135.152344 32.542969 C 135.148438 32.542969 135.144531 32.542969 135.140625 32.542969 "/>
<path style=" stroke:none;fill-rule:evenodd;fill:rgb(100%,100%,100%);fill-opacity:1;" d="M 129.914063 31.785156 C 129.929688 31.777344 129.945313 31.765625 129.964844 31.75 C 131.964844 30.335938 133.957031 28.921875 135.949219 27.515625 C 135.949219 27.519531 135.949219 27.519531 135.953125 27.519531 C 135.28125 28.726563 134.613281 29.941406 133.9375 31.160156 C 132.589844 31.375 131.25 31.582031 129.914063 31.785156 "/>
<path style=" stroke:none;fill-rule:evenodd;fill:rgb(3.09906%,38.798523%,67.498779%);fill-opacity:1;" d="M 133.949219 31.152344 C 135.578125 31.410156 137.21875 31.664063 138.871094 31.925781 C 136.835938 33.382813 134.789063 34.835938 132.734375 36.296875 C 132.730469 36.300781 132.730469 36.300781 132.730469 36.300781 C 133.140625 34.570313 133.542969 32.855469 133.949219 31.152344 "/>
<path style=" stroke:none;fill-rule:evenodd;fill:rgb(67.498779%,71.398926%,83.499146%);fill-opacity:1;" d="M 129.910156 31.789063 C 129.910156 31.789063 129.910156 31.789063 129.914063 31.785156 C 131.25 31.582031 132.589844 31.375 133.9375 31.160156 C 133.535156 32.859375 133.132813 34.570313 132.730469 36.300781 C 132.726563 36.304688 132.726563 36.304688 132.726563 36.304688 C 131.769531 34.78125 130.832031 33.277344 129.910156 31.789063 "/>
<path style=" stroke:none;fill-rule:evenodd;fill:rgb(67.098999%,72.198486%,83.898926%);fill-opacity:1;" d="M 135.953125 27.519531 C 135.960938 27.535156 135.96875 27.546875 135.976563 27.554688 C 136.925781 28.992188 137.886719 30.449219 138.863281 31.921875 C 138.863281 31.925781 138.867188 31.925781 138.871094 31.925781 C 137.207031 31.679688 135.5625 31.4375 133.925781 31.1875 C 134.601563 29.960938 135.277344 28.738281 135.953125 27.519531 "/>
<path style=" stroke:none;fill-rule:evenodd;fill:rgb(100%,100%,100%);fill-opacity:1;" d="M 125.71875 54.171875 C 126.300781 51.261719 126.875 48.402344 127.4375 45.589844 C 127.992188 42.820313 128.539063 40.09375 129.085938 37.410156 C 129.597656 38.375 130.125 39.347656 130.648438 40.324219 C 132.378906 39.007813 134.109375 37.695313 135.839844 36.394531 C 134.203125 39.257813 132.542969 42.160156 130.875 45.097656 C 129.183594 48.078125 127.464844 51.105469 125.71875 54.171875 Z M 127.664063 34.761719 C 125.597656 34.199219 123.5625 33.632813 121.542969 33.082031 C 119.550781 32.539063 117.574219 31.992188 115.628906 31.453125 C 118.335938 30.851563 121.066406 30.253906 123.808594 29.652344 C 126.558594 29.046875 129.339844 28.433594 132.128906 27.820313 C 130.1875 29.269531 128.238281 30.730469 126.28125 32.191406 C 126.738281 33.042969 127.195313 33.898438 127.664063 34.761719 Z M 132.664063 27.421875 C 134.304688 24.640625 135.921875 21.894531 137.519531 19.191406 C 139.09375 16.519531 140.644531 13.878906 142.183594 11.273438 C 141.753906 13.710938 141.3125 16.1875 140.875 18.691406 C 140.429688 21.242188 139.976563 23.835938 139.515625 26.46875 C 138.925781 25.503906 138.347656 24.546875 137.769531 23.601563 C 136.074219 24.871094 134.371094 26.144531 132.664063 27.421875 Z M 140.449219 27.992188 C 142.722656 28.5625 145.023438 29.136719 147.347656 29.714844 C 149.703125 30.300781 152.089844 30.894531 154.503906 31.5 C 151.640625 32.105469 148.792969 32.714844 145.964844 33.3125 C 143.148438 33.90625 140.347656 34.503906 137.5625 35.089844 C 139.210938 33.839844 140.855469 32.597656 142.496094 31.355469 C 141.800781 30.226563 141.117188 29.101563 140.449219 27.992188 "/>
<path style=" stroke:none;fill-rule:nonzero;fill:rgb(100%,100%,100%);fill-opacity:1;" d="M 54.769531 32.855469 C 54.253906 33.765625 53.71875 34.683594 53.1875 35.601563 C 52.652344 36.53125 52.113281 37.460938 51.558594 38.398438 C 50.804688 38.363281 50.054688 38.332031 49.300781 38.296875 C 50.738281 35.835938 52.171875 33.414063 53.566406 31.027344 C 54.9375 28.679688 56.308594 26.367188 57.636719 24.089844 C 58.65625 24.054688 59.675781 24.019531 60.753906 23.984375 C 62.140625 23.941406 62.980469 24.265625 63.28125 24.96875 C 63.582031 25.679688 63.320313 26.785156 62.476563 28.269531 C 61.894531 29.296875 61.265625 30.148438 60.5625 30.835938 C 59.855469 31.523438 59.113281 32.039063 58.339844 32.378906 C 57.5625 32.714844 56.75 32.878906 55.949219 32.867188 C 55.550781 32.863281 55.171875 32.859375 54.769531 32.855469 Z M 58.613281 26.242188 C 58.191406 26.945313 57.792969 27.65625 57.382813 28.363281 C 56.964844 29.082031 56.550781 29.796875 56.140625 30.515625 C 56.285156 30.515625 56.453125 30.515625 56.601563 30.515625 C 57.101563 30.515625 57.53125 30.457031 57.90625 30.347656 C 58.28125 30.234375 58.648438 30.003906 58.988281 29.671875 C 59.332031 29.332031 59.691406 28.867188 60.023438 28.28125 C 60.503906 27.429688 60.664063 26.871094 60.457031 26.605469 C 60.246094 26.335938 59.78125 26.214844 59.023438 26.230469 C 58.878906 26.234375 58.734375 26.238281 58.613281 26.242188 Z M 66.839844 35.601563 C 65.289063 35.558594 63.71875 35.519531 62.207031 35.480469 C 61.246094 36.5625 60.296875 37.652344 59.339844 38.746094 C 58.460938 38.707031 57.578125 38.667969 56.71875 38.628906 C 58.996094 36.015625 61.277344 33.425781 63.542969 30.859375 C 65.789063 28.3125 68.023438 25.789063 70.238281 23.289063 C 70.910156 23.265625 71.582031 23.238281 72.253906 23.214844 C 71.738281 25.703125 71.222656 28.253906 70.691406 30.871094 C 70.144531 33.5625 69.578125 36.332031 69.015625 39.179688 C 68.023438 39.136719 67.078125 39.09375 66.109375 39.050781 C 66.355469 37.890625 66.597656 36.738281 66.839844 35.601563 Z M 67.460938 33.078125 C 67.6875 32.132813 67.894531 31.199219 68.117188 30.273438 C 68.339844 29.359375 68.542969 28.449219 68.765625 27.546875 C 68.765625 27.546875 68.746094 27.546875 68.746094 27.546875 C 68.003906 28.453125 67.246094 29.371094 66.511719 30.277344 C 65.765625 31.195313 65.023438 32.113281 64.28125 33.035156 C 65.3125 33.046875 66.386719 33.0625 67.460938 33.078125 Z M 79.238281 32.375 C 79.359375 33.546875 79.507813 34.734375 79.652344 35.941406 C 79.800781 37.167969 79.953125 38.414063 80.105469 39.679688 C 78.859375 39.625 77.632813 39.566406 76.40625 39.515625 C 76.375 38.332031 76.3125 37.164063 76.269531 36.011719 C 76.230469 34.878906 76.191406 33.757813 76.164063 32.652344 C 76.144531 32.652344 76.121094 32.652344 76.121094 32.652344 C 75.558594 33.746094 75 34.855469 74.441406 35.960938 C 73.878906 37.085938 73.292969 38.210938 72.734375 39.347656 C 71.765625 39.304688 70.820313 39.261719 69.894531 39.21875 C 71.3125 36.457031 72.699219 33.742188 74.085938 31.089844 C 75.453125 28.476563 76.796875 25.917969 78.113281 23.402344 C 79.355469 23.359375 80.617188 23.320313 81.921875 23.277344 C 82.921875 23.242188 83.726563 23.371094 84.308594 23.660156 C 84.910156 23.960938 85.269531 24.445313 85.347656 25.140625 C 85.421875 25.839844 85.179688 26.75 84.636719 27.863281 C 84.296875 28.554688 83.828125 29.226563 83.273438 29.871094 C 82.71875 30.519531 82.070313 31.066406 81.363281 31.519531 C 80.671875 31.964844 79.945313 32.253906 79.238281 32.375 Z M 79.667969 25.734375 C 79.261719 26.511719 78.84375 27.285156 78.449219 28.074219 C 78.050781 28.859375 77.648438 29.65625 77.234375 30.457031 C 77.359375 30.457031 77.484375 30.453125 77.609375 30.453125 C 78.484375 30.453125 79.253906 30.277344 79.90625 29.914063 C 80.5625 29.550781 81.113281 28.90625 81.574219 27.992188 C 82.03125 27.085938 82.117188 26.476563 81.820313 26.167969 C 81.511719 25.847656 80.921875 25.707031 80.058594 25.722656 C 79.914063 25.726563 79.789063 25.730469 79.667969 25.734375 Z M 100.078125 23.183594 C 99.488281 24.472656 98.894531 25.777344 98.316406 27.09375 C 98.101563 26.535156 97.699219 26.105469 97.167969 25.808594 C 96.625 25.503906 96 25.363281 95.324219 25.378906 C 94.316406 25.402344 93.335938 25.695313 92.332031 26.234375 C 91.308594 26.785156 90.4375 27.503906 89.617188 28.410156 C 88.796875 29.316406 88.148438 30.246094 87.699219 31.195313 C 87.253906 32.144531 87.003906 33.070313 86.984375 33.96875 C 86.960938 34.882813 87.171875 35.628906 87.660156 36.21875 C 88.15625 36.808594 88.902344 37.125 89.882813 37.15625 C 90.5625 37.175781 91.351563 37.023438 92.21875 36.6875 C 93.085938 36.351563 93.902344 35.898438 94.625 35.339844 C 94 36.753906 93.371094 38.175781 92.738281 39.617188 C 90.917969 40.292969 89.414063 40.597656 88.273438 40.542969 C 87.109375 40.488281 86.121094 40.191406 85.339844 39.648438 C 84.574219 39.121094 84.050781 38.410156 83.726563 37.519531 C 83.410156 36.644531 83.316406 35.65625 83.433594 34.566406 C 83.550781 33.488281 83.886719 32.378906 84.429688 31.246094 C 84.996094 30.074219 85.71875 28.964844 86.613281 27.910156 C 87.503906 26.859375 88.488281 25.929688 89.582031 25.109375 C 90.671875 24.296875 91.835938 23.640625 93.050781 23.15625 C 94.28125 22.664063 95.488281 22.394531 96.6875 22.351563 C 97.988281 22.308594 99.117188 22.582031 100.078125 23.183594 Z M 110.917969 25.230469 C 108.863281 25.273438 106.828125 25.316406 104.832031 25.359375 C 104.261719 26.632813 103.710938 27.914063 103.15625 29.207031 C 105.089844 29.199219 107.066406 29.1875 109.039063 29.175781 C 108.613281 30.214844 108.1875 31.253906 107.757813 32.304688 C 105.785156 32.289063 103.789063 32.273438 101.859375 32.253906 C 101.496094 33.082031 101.160156 33.910156 100.808594 34.738281 C 100.449219 35.578125 100.09375 36.414063 99.746094 37.261719 C 101.769531 37.324219 103.855469 37.386719 105.941406 37.449219 C 105.5 38.550781 105.058594 39.664063 104.632813 40.78125 C 101.257813 40.628906 97.96875 40.480469 94.765625 40.335938 C 96.128906 37.210938 97.441406 34.152344 98.746094 31.167969 C 100.027344 28.246094 101.316406 25.386719 102.5625 22.585938 C 105.679688 22.480469 108.875 22.371094 112.136719 22.261719 C 111.746094 23.246094 111.332031 24.234375 110.917969 25.230469 Z M 118.59375 22.046875 C 117.625 24.523438 116.621094 27.046875 115.632813 29.617188 C 114.625 32.238281 113.59375 34.921875 112.566406 37.648438 C 114.503906 37.707031 116.441406 37.765625 118.484375 37.828125 C 118.0625 38.992188 117.65625 40.164063 117.230469 41.347656 C 113.789063 41.191406 110.457031 41.042969 107.253906 40.898438 C 108.523438 37.589844 109.789063 34.359375 111.046875 31.210938 C 112.277344 28.128906 113.503906 25.121094 114.703125 22.179688 C 115.964844 22.136719 117.25 22.089844 118.59375 22.046875 "/>
<path style=" stroke:none;fill-rule:nonzero;fill:rgb(74.899292%,15.299988%,18.399048%);fill-opacity:1;" d="M 175.8125 61.105469 C 175.464844 59.566406 175.117188 58.039063 174.78125 56.523438 C 174.449219 55.019531 174.113281 53.523438 173.777344 52.035156 C 174.308594 52.070313 174.847656 52.105469 175.382813 52.140625 C 175.578125 53.183594 175.773438 54.234375 175.972656 55.289063 C 176.175781 56.34375 176.378906 57.40625 176.578125 58.472656 C 176.871094 57.449219 177.175781 56.425781 177.472656 55.40625 C 177.765625 54.382813 178.074219 53.359375 178.378906 52.339844 C 178.773438 52.363281 179.171875 52.390625 179.566406 52.417969 C 179.757813 53.476563 179.96875 54.546875 180.171875 55.621094 C 180.375 56.695313 180.597656 57.78125 180.800781 58.867188 C 181.109375 57.828125 181.417969 56.785156 181.726563 55.742188 C 182.03125 54.703125 182.347656 53.660156 182.664063 52.617188 C 183.238281 52.65625 183.816406 52.695313 184.398438 52.730469 C 183.890625 54.226563 183.382813 55.722656 182.878906 57.21875 C 182.371094 58.710938 181.855469 60.199219 181.355469 61.691406 C 180.90625 61.644531 180.460938 61.597656 180.019531 61.550781 C 179.816406 60.515625 179.617188 59.484375 179.421875 58.460938 C 179.230469 57.441406 179.042969 56.421875 178.851563 55.410156 C 178.550781 56.382813 178.261719 57.355469 177.96875 58.324219 C 177.679688 59.296875 177.386719 60.269531 177.101563 61.242188 C 176.671875 61.195313 176.242188 61.148438 175.8125 61.105469 Z M 189.746094 52.90625 C 191.15625 53.003906 192.355469 53.566406 193.328125 54.609375 C 193.8125 55.128906 194.1875 55.703125 194.425781 56.316406 C 194.660156 56.929688 194.777344 57.59375 194.757813 58.292969 C 194.738281 58.992188 194.574219 59.628906 194.304688 60.195313 C 194.035156 60.765625 193.621094 61.269531 193.09375 61.703125 C 192.042969 62.574219 190.804688 62.925781 189.402344 62.777344 C 188.027344 62.628906 186.871094 62.027344 185.9375 60.980469 C 185.472656 60.460938 185.121094 59.902344 184.90625 59.3125 C 184.695313 58.722656 184.597656 58.089844 184.621094 57.421875 C 184.644531 56.753906 184.789063 56.140625 185.046875 55.585938 C 185.304688 55.035156 185.683594 54.539063 186.179688 54.105469 C 187.175781 53.226563 188.359375 52.828125 189.746094 52.917969 C 189.746094 52.914063 189.746094 52.910156 189.746094 52.90625 Z M 189.6875 54.59375 C 188.789063 54.535156 188.023438 54.796875 187.371094 55.371094 C 186.726563 55.9375 186.394531 56.660156 186.359375 57.535156 C 186.324219 58.402344 186.609375 59.1875 187.21875 59.882813 C 187.832031 60.589844 188.578125 60.984375 189.464844 61.074219 C 190.355469 61.160156 191.140625 60.914063 191.820313 60.320313 C 192.503906 59.730469 192.855469 58.980469 192.890625 58.085938 C 192.921875 57.183594 192.617188 56.390625 191.992188 55.710938 C 191.363281 55.03125 190.605469 54.65625 189.6875 54.59375 Z M 196.097656 63.253906 C 196.152344 61.617188 196.191406 59.984375 196.238281 58.363281 C 196.289063 56.742188 196.335938 55.128906 196.378906 53.519531 C 197.382813 53.585938 198.382813 53.640625 199.382813 53.714844 C 199.890625 53.753906 200.371094 53.84375 200.832031 53.945313 C 201.285156 54.042969 201.71875 54.265625 202.117188 54.605469 C 202.5 54.925781 202.808594 55.3125 203.019531 55.761719 C 203.230469 56.214844 203.347656 56.675781 203.335938 57.144531 C 203.332031 57.261719 203.3125 57.382813 203.289063 57.507813 C 203.269531 57.632813 203.246094 57.757813 203.210938 57.878906 C 203.128906 58.144531 203.007813 58.394531 202.867188 58.636719 C 202.726563 58.878906 202.566406 59.082031 202.386719 59.246094 C 202.117188 59.488281 201.816406 59.664063 201.484375 59.789063 C 201.164063 59.910156 200.824219 59.996094 200.460938 60.035156 C 200.925781 60.691406 201.382813 61.347656 201.859375 62.007813 C 202.335938 62.671875 202.8125 63.34375 203.300781 64.015625 C 202.472656 63.929688 201.640625 63.839844 200.820313 63.753906 C 200.371094 63.066406 199.929688 62.378906 199.488281 61.703125 C 199.050781 61.023438 198.609375 60.351563 198.171875 59.679688 C 198.152344 59.679688 198.144531 59.679688 198.136719 59.675781 C 198.121094 60.304688 198.105469 60.9375 198.089844 61.566406 C 198.074219 62.195313 198.058594 62.828125 198.035156 63.460938 C 197.386719 63.390625 196.738281 63.320313 196.097656 63.253906 Z M 198.171875 58.296875 C 198.523438 58.324219 198.875 58.347656 199.234375 58.386719 C 199.328125 58.394531 199.414063 58.410156 199.507813 58.414063 C 199.605469 58.417969 199.710938 58.421875 199.8125 58.417969 C 199.992188 58.414063 200.175781 58.382813 200.355469 58.339844 C 200.527344 58.296875 200.675781 58.214844 200.804688 58.113281 C 200.976563 57.980469 201.09375 57.832031 201.183594 57.65625 C 201.269531 57.476563 201.320313 57.285156 201.324219 57.082031 C 201.328125 56.867188 201.285156 56.65625 201.191406 56.445313 C 201.101563 56.238281 200.957031 56.070313 200.773438 55.925781 C 200.546875 55.753906 200.3125 55.636719 200.089844 55.589844 C 199.851563 55.539063 199.597656 55.507813 199.324219 55.488281 C 198.964844 55.460938 198.605469 55.433594 198.253906 55.410156 C 198.234375 55.890625 198.230469 56.371094 198.21875 56.851563 C 198.203125 57.332031 198.191406 57.8125 198.171875 58.296875 Z M 204.496094 64.140625 C 204.523438 62.449219 204.5625 60.757813 204.589844 59.078125 C 204.621094 57.402344 204.648438 55.730469 204.6875 54.0625 C 205.359375 54.105469 206.046875 54.152344 206.726563 54.199219 C 206.703125 55.574219 206.683594 56.953125 206.660156 58.339844 C 206.636719 59.726563 206.613281 61.117188 206.582031 62.515625 C 207.742188 62.628906 208.894531 62.742188 210.066406 62.859375 C 210.054688 63.480469 210.050781 64.105469 210.039063 64.730469 C 208.167969 64.53125 206.308594 64.335938 204.496094 64.140625 Z M 211.238281 64.859375 C 211.265625 63.117188 211.289063 61.382813 211.3125 59.652344 C 211.332031 57.929688 211.355469 56.214844 211.382813 54.503906 C 212.183594 54.554688 212.996094 54.601563 213.816406 54.664063 C 213.921875 54.671875 214.015625 54.691406 214.101563 54.695313 C 214.195313 54.703125 214.277344 54.71875 214.363281 54.726563 C 215.148438 54.804688 215.941406 54.9375 216.714844 55.144531 C 217.5 55.351563 218.203125 55.722656 218.835938 56.234375 C 219.394531 56.695313 219.851563 57.226563 220.203125 57.851563 C 220.558594 58.484375 220.785156 59.125 220.875 59.78125 C 220.890625 59.910156 220.914063 60.035156 220.921875 60.164063 C 220.933594 60.289063 220.945313 60.417969 220.945313 60.542969 C 220.945313 60.648438 220.945313 60.757813 220.9375 60.863281 C 220.929688 60.96875 220.90625 61.074219 220.890625 61.179688 C 220.796875 61.820313 220.566406 62.4375 220.203125 63.011719 C 219.839844 63.589844 219.371094 64.066406 218.792969 64.433594 C 218.042969 64.910156 217.25 65.167969 216.402344 65.210938 C 215.542969 65.25 214.675781 65.222656 213.757813 65.125 C 212.910156 65.035156 212.0625 64.945313 211.238281 64.859375 Z M 213.4375 63.191406 C 213.535156 63.199219 213.628906 63.210938 213.726563 63.21875 C 214.335938 63.289063 214.933594 63.316406 215.503906 63.300781 C 216.085938 63.285156 216.652344 63.144531 217.171875 62.851563 C 217.640625 62.585938 218 62.21875 218.253906 61.785156 C 218.507813 61.339844 218.644531 60.867188 218.648438 60.34375 C 218.648438 59.789063 218.519531 59.246094 218.246094 58.722656 C 217.96875 58.199219 217.578125 57.761719 217.058594 57.40625 C 216.671875 57.140625 216.246094 56.949219 215.800781 56.835938 C 215.347656 56.722656 214.902344 56.652344 214.4375 56.601563 C 214.3125 56.589844 214.191406 56.570313 214.058594 56.5625 C 213.925781 56.550781 213.804688 56.539063 213.671875 56.53125 C 213.613281 56.527344 213.558594 56.523438 213.511719 56.519531 C 213.5 57.628906 213.484375 58.738281 213.476563 59.84375 C 213.464844 60.960938 213.449219 62.074219 213.4375 63.191406 Z M 225.445313 66.363281 C 224.808594 64.460938 224.183594 62.570313 223.574219 60.703125 C 222.96875 58.847656 222.351563 57.007813 221.757813 55.183594 C 222.539063 55.234375 223.332031 55.289063 224.136719 55.339844 C 224.503906 56.621094 224.882813 57.914063 225.257813 59.210938 C 225.632813 60.515625 226.011719 61.824219 226.394531 63.140625 C 226.761719 61.890625 227.128906 60.640625 227.492188 59.386719 C 227.855469 58.136719 228.238281 56.886719 228.621094 55.636719 C 229.203125 55.675781 229.800781 55.710938 230.402344 55.753906 C 230.78125 57.066406 231.175781 58.382813 231.566406 59.714844 C 231.960938 61.046875 232.355469 62.386719 232.746094 63.734375 C 233.136719 62.457031 233.519531 61.175781 233.898438 59.898438 C 234.277344 58.617188 234.683594 57.339844 235.085938 56.058594 C 235.953125 56.117188 236.824219 56.171875 237.710938 56.230469 C 237.058594 58.070313 236.394531 59.910156 235.75 61.746094 C 235.101563 63.582031 234.4375 65.414063 233.804688 67.246094 C 233.128906 67.175781 232.449219 67.101563 231.78125 67.03125 C 231.402344 65.746094 231.015625 64.464844 230.652344 63.199219 C 230.289063 61.933594 229.914063 60.675781 229.546875 59.421875 C 229.183594 60.613281 228.816406 61.804688 228.453125 62.996094 C 228.09375 64.183594 227.730469 65.375 227.375 66.566406 C 226.726563 66.496094 226.085938 66.429688 225.445313 66.363281 Z M 239.214844 67.820313 C 239.183594 65.882813 239.160156 63.953125 239.128906 62.035156 C 239.097656 60.121094 239.074219 58.21875 239.042969 56.320313 C 239.929688 56.378906 240.808594 56.433594 241.703125 56.492188 C 241.730469 58.410156 241.761719 60.335938 241.796875 62.265625 C 241.828125 64.203125 241.867188 66.148438 241.894531 68.105469 C 240.988281 68.007813 240.101563 67.914063 239.214844 67.820313 Z M 244.738281 68.40625 C 244.707031 66.433594 244.660156 64.464844 244.621094 62.507813 C 244.585938 60.558594 244.550781 58.613281 244.507813 56.675781 C 245.546875 56.746094 246.585938 56.804688 247.625 56.882813 C 247.746094 56.890625 247.859375 56.914063 247.984375 56.921875 C 248.097656 56.929688 248.199219 56.949219 248.304688 56.957031 C 249.324219 57.054688 250.339844 57.210938 251.34375 57.453125 C 252.351563 57.695313 253.273438 58.113281 254.121094 58.714844 C 254.847656 59.230469 255.449219 59.851563 255.921875 60.566406 C 256.394531 61.289063 256.707031 62.023438 256.875 62.773438 C 256.90625 62.917969 256.929688 63.066406 256.949219 63.207031 C 256.96875 63.351563 256.988281 63.496094 256.992188 63.640625 C 256.996094 63.761719 257 63.882813 256.996094 64.003906 C 256.988281 64.125 256.960938 64.242188 256.941406 64.363281 C 256.828125 65.089844 256.578125 65.789063 256.132813 66.441406 C 255.6875 67.09375 255.105469 67.632813 254.394531 68.039063 C 253.457031 68.578125 252.425781 68.847656 251.34375 68.882813 C 250.269531 68.917969 249.136719 68.871094 247.964844 68.746094 C 246.886719 68.632813 245.808594 68.519531 244.738281 68.40625 Z M 247.480469 66.550781 C 247.589844 66.558594 247.710938 66.570313 247.824219 66.582031 C 248.625 66.671875 249.386719 66.710938 250.128906 66.703125 C 250.867188 66.695313 251.566406 66.53125 252.21875 66.214844 C 252.835938 65.914063 253.292969 65.515625 253.601563 65.015625 C 253.910156 64.523438 254.054688 63.976563 254.039063 63.386719 C 254.023438 62.753906 253.820313 62.132813 253.457031 61.535156 C 253.09375 60.933594 252.550781 60.433594 251.871094 60.023438 C 251.359375 59.71875 250.824219 59.5 250.242188 59.367188 C 249.671875 59.234375 249.074219 59.144531 248.488281 59.085938 C 248.316406 59.070313 248.15625 59.046875 247.996094 59.035156 C 247.847656 59.023438 247.675781 59.011719 247.515625 58.996094 C 247.4375 58.992188 247.371094 58.988281 247.316406 58.984375 C 247.34375 60.238281 247.371094 61.496094 247.402344 62.753906 C 247.433594 64.015625 247.457031 65.28125 247.480469 66.550781 Z M 259.566406 69.976563 C 259.496094 67.898438 259.425781 65.828125 259.351563 63.769531 C 259.28125 61.71875 259.21875 59.671875 259.140625 57.636719 C 262.078125 57.832031 265.070313 58.027344 268.109375 58.226563 C 268.144531 58.976563 268.175781 59.734375 268.210938 60.488281 C 266.203125 60.34375 264.210938 60.199219 262.269531 60.058594 C 262.308594 61.007813 262.34375 61.957031 262.371094 62.910156 C 264.242188 63.0625 266.15625 63.222656 268.082031 63.378906 C 268.113281 64.140625 268.148438 64.902344 268.179688 65.664063 C 266.253906 65.492188 264.335938 65.320313 262.460938 65.152344 C 262.5 66.113281 262.527344 67.074219 262.566406 68.035156 C 264.527344 68.230469 266.539063 68.425781 268.566406 68.628906 C 268.601563 69.398438 268.632813 70.167969 268.667969 70.9375 C 265.578125 70.613281 262.550781 70.292969 259.566406 69.976563 "/>
<path style=" stroke:none;fill-rule:nonzero;fill:rgb(100%,100%,100%);fill-opacity:1;" d="M 174.65625 59.660156 C 174.308594 58.121094 173.960938 56.59375 173.625 55.078125 C 173.289063 53.574219 172.953125 52.078125 172.621094 50.589844 C 173.152344 50.625 173.6875 50.660156 174.226563 50.695313 C 174.425781 51.738281 174.617188 52.789063 174.816406 53.839844 C 175.019531 54.898438 175.222656 55.960938 175.421875 57.027344 C 175.714844 56.003906 176.019531 54.980469 176.3125 53.960938 C 176.605469 52.9375 176.917969 51.914063 177.21875 50.894531 C 177.617188 50.917969 178.011719 50.945313 178.410156 50.96875 C 178.601563 52.03125 178.8125 53.101563 179.015625 54.175781 C 179.21875 55.25 179.441406 56.335938 179.644531 57.421875 C 179.953125 56.382813 180.261719 55.339844 180.570313 54.296875 C 180.875 53.257813 181.191406 52.214844 181.507813 51.171875 C 182.082031 51.210938 182.65625 51.246094 183.242188 51.285156 C 182.734375 52.78125 182.226563 54.277344 181.71875 55.769531 C 181.214844 57.261719 180.699219 58.753906 180.199219 60.246094 C 179.753906 60.199219 179.304688 60.152344 178.863281 60.101563 C 178.660156 59.070313 178.460938 58.039063 178.265625 57.015625 C 178.074219 55.992188 177.886719 54.976563 177.691406 53.964844 C 177.394531 54.9375 177.105469 55.910156 176.8125 56.878906 C 176.519531 57.851563 176.226563 58.824219 175.945313 59.792969 C 175.515625 59.75 175.085938 59.703125 174.65625 59.660156 Z M 188.59375 51.460938 C 189.996094 51.558594 191.199219 52.121094 192.171875 53.164063 C 192.65625 53.683594 193.03125 54.257813 193.265625 54.871094 C 193.503906 55.484375 193.621094 56.148438 193.601563 56.847656 C 193.582031 57.546875 193.417969 58.183594 193.148438 58.75 C 192.878906 59.320313 192.464844 59.824219 191.9375 60.257813 C 190.886719 61.128906 189.648438 61.480469 188.246094 61.332031 C 186.871094 61.183594 185.714844 60.582031 184.78125 59.535156 C 184.3125 59.015625 183.964844 58.457031 183.75 57.867188 C 183.539063 57.277344 183.441406 56.644531 183.464844 55.976563 C 183.488281 55.304688 183.636719 54.691406 183.890625 54.140625 C 184.148438 53.589844 184.527344 53.09375 185.023438 52.65625 C 186.019531 51.78125 187.203125 51.382813 188.589844 51.472656 C 188.589844 51.46875 188.59375 51.464844 188.59375 51.460938 Z M 188.53125 53.148438 C 187.636719 53.089844 186.867188 53.351563 186.214844 53.925781 C 185.570313 54.492188 185.238281 55.214844 185.203125 56.089844 C 185.171875 56.957031 185.453125 57.738281 186.058594 58.4375 C 186.675781 59.144531 187.421875 59.539063 188.304688 59.625 C 189.199219 59.714844 189.980469 59.46875 190.664063 58.875 C 191.347656 58.285156 191.699219 57.535156 191.730469 56.640625 C 191.765625 55.738281 191.460938 54.945313 190.835938 54.265625 C 190.207031 53.585938 189.449219 53.210938 188.53125 53.148438 Z M 194.941406 61.808594 C 194.996094 60.171875 195.035156 58.539063 195.082031 56.914063 C 195.132813 55.296875 195.179688 53.679688 195.222656 52.074219 C 196.222656 52.140625 197.226563 52.195313 198.226563 52.269531 C 198.734375 52.308594 199.214844 52.398438 199.675781 52.5 C 200.128906 52.597656 200.5625 52.820313 200.960938 53.15625 C 201.34375 53.480469 201.652344 53.867188 201.863281 54.316406 C 202.074219 54.769531 202.191406 55.230469 202.179688 55.699219 C 202.175781 55.816406 202.15625 55.9375 202.136719 56.058594 C 202.113281 56.1875 202.089844 56.3125 202.054688 56.433594 C 201.972656 56.699219 201.851563 56.949219 201.710938 57.191406 C 201.570313 57.429688 201.410156 57.636719 201.226563 57.800781 C 200.960938 58.039063 200.660156 58.21875 200.324219 58.34375 C 200.007813 58.464844 199.664063 58.550781 199.304688 58.589844 C 199.769531 59.242188 200.226563 59.902344 200.703125 60.5625 C 201.179688 61.226563 201.65625 61.898438 202.144531 62.570313 C 201.316406 62.484375 200.484375 62.394531 199.664063 62.308594 C 199.21875 61.621094 198.773438 60.933594 198.332031 60.257813 C 197.890625 59.578125 197.453125 58.90625 197.015625 58.234375 C 196.996094 58.234375 196.988281 58.234375 196.976563 58.230469 C 196.964844 58.859375 196.949219 59.492188 196.933594 60.121094 C 196.917969 60.75 196.898438 61.382813 196.878906 62.015625 C 196.230469 61.945313 195.578125 61.875 194.941406 61.808594 Z M 197.015625 56.847656 C 197.367188 56.878906 197.71875 56.902344 198.078125 56.941406 C 198.171875 56.949219 198.257813 56.964844 198.351563 56.96875 C 198.445313 56.972656 198.554688 56.976563 198.65625 56.972656 C 198.835938 56.96875 199.019531 56.9375 199.199219 56.894531 C 199.371094 56.851563 199.519531 56.769531 199.648438 56.667969 C 199.820313 56.535156 199.9375 56.386719 200.027344 56.210938 C 200.113281 56.03125 200.164063 55.839844 200.167969 55.636719 C 200.171875 55.421875 200.128906 55.210938 200.035156 55 C 199.945313 54.792969 199.800781 54.621094 199.617188 54.480469 C 199.390625 54.308594 199.15625 54.191406 198.929688 54.144531 C 198.695313 54.09375 198.4375 54.0625 198.164063 54.042969 C 197.808594 54.015625 197.445313 53.988281 197.097656 53.964844 C 197.078125 54.445313 197.074219 54.925781 197.0625 55.40625 C 197.046875 55.886719 197.03125 56.367188 197.015625 56.847656 Z M 203.339844 62.695313 C 203.367188 61 203.40625 59.3125 203.433594 57.628906 C 203.464844 55.957031 203.492188 54.28125 203.53125 52.617188 C 204.203125 52.660156 204.890625 52.707031 205.570313 52.753906 C 205.546875 54.128906 205.523438 55.507813 205.503906 56.894531 C 205.480469 58.28125 205.457031 59.671875 205.425781 61.070313 C 206.589844 61.183594 207.738281 61.296875 208.910156 61.414063 C 208.898438 62.035156 208.894531 62.660156 208.882813 63.285156 C 207.011719 63.085938 205.148438 62.890625 203.339844 62.695313 Z M 210.082031 63.414063 C 210.109375 61.671875 210.132813 59.933594 210.152344 58.207031 C 210.175781 56.484375 210.199219 54.769531 210.226563 53.058594 C 211.027344 53.109375 211.839844 53.15625 212.660156 53.21875 C 212.765625 53.226563 212.859375 53.246094 212.945313 53.25 C 213.035156 53.257813 213.121094 53.273438 213.207031 53.28125 C 213.988281 53.359375 214.785156 53.492188 215.558594 53.695313 C 216.34375 53.90625 217.046875 54.277344 217.675781 54.789063 C 218.238281 55.25 218.695313 55.78125 219.046875 56.40625 C 219.402344 57.039063 219.628906 57.679688 219.71875 58.335938 C 219.734375 58.464844 219.757813 58.589844 219.765625 58.71875 C 219.777344 58.84375 219.785156 58.972656 219.789063 59.097656 C 219.789063 59.203125 219.789063 59.308594 219.78125 59.417969 C 219.769531 59.523438 219.75 59.628906 219.734375 59.734375 C 219.640625 60.375 219.410156 60.988281 219.050781 61.566406 C 218.683594 62.144531 218.214844 62.617188 217.636719 62.988281 C 216.886719 63.464844 216.09375 63.722656 215.246094 63.761719 C 214.386719 63.804688 213.519531 63.777344 212.601563 63.679688 C 211.753906 63.589844 210.902344 63.5 210.082031 63.414063 Z M 212.28125 61.746094 C 212.378906 61.753906 212.472656 61.765625 212.566406 61.773438 C 213.175781 61.84375 213.777344 61.871094 214.347656 61.855469 C 214.929688 61.839844 215.496094 61.699219 216.015625 61.40625 C 216.484375 61.140625 216.84375 60.773438 217.09375 60.339844 C 217.351563 59.894531 217.488281 59.417969 217.492188 58.898438 C 217.492188 58.34375 217.363281 57.800781 217.089844 57.277344 C 216.8125 56.753906 216.421875 56.3125 215.902344 55.957031 C 215.511719 55.695313 215.089844 55.5 214.644531 55.390625 C 214.191406 55.277344 213.742188 55.207031 213.28125 55.15625 C 213.15625 55.144531 213.035156 55.125 212.902344 55.113281 C 212.769531 55.105469 212.648438 55.09375 212.515625 55.085938 C 212.460938 55.082031 212.402344 55.078125 212.355469 55.074219 C 212.34375 56.183594 212.328125 57.292969 212.316406 58.398438 C 212.308594 59.511719 212.292969 60.628906 212.28125 61.746094 Z M 224.289063 64.914063 C 223.652344 63.015625 223.023438 61.125 222.414063 59.257813 C 221.8125 57.402344 221.195313 55.5625 220.597656 53.738281 C 221.382813 53.789063 222.175781 53.84375 222.980469 53.894531 C 223.347656 55.175781 223.726563 56.46875 224.101563 57.765625 C 224.476563 59.070313 224.855469 60.378906 225.238281 61.695313 C 225.605469 60.445313 225.972656 59.195313 226.335938 57.941406 C 226.699219 56.691406 227.082031 55.441406 227.464844 54.1875 C 228.050781 54.226563 228.644531 54.265625 229.246094 54.304688 C 229.625 55.617188 230.015625 56.9375 230.410156 58.265625 C 230.804688 59.601563 231.199219 60.941406 231.59375 62.289063 C 231.980469 61.011719 232.363281 59.730469 232.742188 58.453125 C 233.121094 57.171875 233.527344 55.894531 233.929688 54.613281 C 234.800781 54.667969 235.667969 54.726563 236.554688 54.785156 C 235.902344 56.625 235.238281 58.464844 234.59375 60.300781 C 233.945313 62.132813 233.28125 63.96875 232.648438 65.800781 C 231.972656 65.726563 231.292969 65.65625 230.625 65.585938 C 230.242188 64.300781 229.859375 63.019531 229.496094 61.753906 C 229.132813 60.488281 228.757813 59.230469 228.390625 57.976563 C 228.027344 59.167969 227.65625 60.359375 227.296875 61.546875 C 226.9375 62.738281 226.574219 63.929688 226.21875 65.121094 C 225.570313 65.050781 224.929688 64.984375 224.289063 64.914063 Z M 238.058594 66.375 C 238.023438 64.4375 238.003906 62.507813 237.972656 60.589844 C 237.941406 58.675781 237.917969 56.773438 237.886719 54.871094 C 238.773438 54.929688 239.652344 54.988281 240.546875 55.046875 C 240.574219 56.964844 240.605469 58.886719 240.636719 60.820313 C 240.671875 62.757813 240.710938 64.703125 240.738281 66.660156 C 239.832031 66.5625 238.945313 66.46875 238.058594 66.375 Z M 243.582031 66.960938 C 243.550781 64.984375 243.503906 63.019531 243.464844 61.058594 C 243.429688 59.113281 243.394531 57.167969 243.351563 55.230469 C 244.390625 55.300781 245.429688 55.359375 246.46875 55.4375 C 246.589844 55.445313 246.703125 55.46875 246.824219 55.476563 C 246.941406 55.480469 247.042969 55.503906 247.148438 55.511719 C 248.164063 55.605469 249.183594 55.765625 250.1875 56.007813 C 251.195313 56.25 252.113281 56.667969 252.964844 57.269531 C 253.6875 57.785156 254.292969 58.40625 254.761719 59.121094 C 255.238281 59.84375 255.550781 60.578125 255.71875 61.328125 C 255.75 61.472656 255.773438 61.621094 255.789063 61.761719 C 255.808594 61.90625 255.832031 62.050781 255.835938 62.195313 C 255.839844 62.316406 255.84375 62.4375 255.839844 62.558594 C 255.835938 62.679688 255.804688 62.796875 255.785156 62.917969 C 255.671875 63.644531 255.421875 64.34375 254.976563 64.992188 C 254.53125 65.648438 253.949219 66.183594 253.238281 66.59375 C 252.300781 67.132813 251.269531 67.402344 250.1875 67.4375 C 249.113281 67.472656 247.980469 67.425781 246.808594 67.300781 C 245.730469 67.1875 244.652344 67.074219 243.582031 66.960938 Z M 246.324219 65.101563 C 246.429688 65.113281 246.554688 65.125 246.667969 65.136719 C 247.46875 65.226563 248.230469 65.265625 248.96875 65.257813 C 249.710938 65.25 250.410156 65.085938 251.0625 64.765625 C 251.679688 64.46875 252.136719 64.066406 252.445313 63.570313 C 252.753906 63.078125 252.898438 62.53125 252.882813 61.941406 C 252.867188 61.308594 252.664063 60.6875 252.300781 60.089844 C 251.9375 59.488281 251.394531 58.988281 250.714844 58.578125 C 250.203125 58.273438 249.664063 58.050781 249.085938 57.917969 C 248.515625 57.789063 247.917969 57.699219 247.332031 57.640625 C 247.160156 57.621094 247 57.597656 246.839844 57.585938 C 246.6875 57.578125 246.519531 57.5625 246.359375 57.550781 C 246.28125 57.546875 246.214844 57.542969 246.160156 57.539063 C 246.183594 58.792969 246.21875 60.046875 246.246094 61.304688 C 246.277344 62.570313 246.300781 63.835938 246.324219 65.101563 Z M 258.410156 68.53125 C 258.339844 66.453125 258.269531 64.382813 258.195313 62.324219 C 258.125 60.273438 258.0625 58.226563 257.984375 56.191406 C 260.921875 56.386719 263.914063 56.582031 266.953125 56.78125 C 266.984375 57.53125 267.019531 58.289063 267.054688 59.042969 C 265.046875 58.898438 263.050781 58.753906 261.113281 58.613281 C 261.152344 59.5625 261.1875 60.511719 261.214844 61.464844 C 263.085938 61.617188 265 61.777344 266.925781 61.933594 C 266.957031 62.695313 266.992188 63.457031 267.023438 64.21875 C 265.097656 64.046875 263.175781 63.875 261.304688 63.707031 C 261.34375 64.667969 261.371094 65.628906 261.410156 66.589844 C 263.371094 66.785156 265.382813 66.980469 267.410156 67.179688 C 267.441406 67.949219 267.476563 68.722656 267.511719 69.492188 C 264.421875 69.167969 261.394531 68.847656 258.410156 68.53125 "/>
<path style=" stroke:none;fill-rule:nonzero;fill:rgb(100%,100%,100%);fill-opacity:1;" d="M 145.574219 63.042969 C 152.671875 65.90625 159.308594 69.207031 165.402344 72.886719 C 164.242188 70.207031 162.96875 67.675781 161.59375 65.320313 L 163.179688 65.617188 C 157.390625 64.519531 151.519531 63.65625 145.574219 63.042969 Z M 166.824219 72.980469 C 168.972656 71.152344 171.195313 69.433594 173.488281 67.839844 C 170.101563 67.019531 166.679688 66.28125 163.234375 65.625 C 164.527344 67.929688 165.730469 70.390625 166.824219 72.980469 Z M 168.144531 76.300781 C 169.289063 79.375 170.292969 82.617188 171.136719 85.992188 C 171.371094 86.941406 171.597656 87.894531 171.808594 88.863281 C 176.714844 89.636719 181.410156 90.164063 185.78125 90.453125 C 180.855469 85.394531 175.109375 80.707031 168.671875 76.46875 Z M 172.09375 90.207031 C 172.175781 90.609375 172.257813 91.015625 172.335938 91.421875 C 172.6875 93.261719 172.996094 95.140625 173.257813 97.058594 C 173.347656 97.714844 173.429688 98.375 173.507813 99.039063 L 173.535156 99.277344 L 172.253906 99.277344 L 172.226563 99.039063 C 172.15625 98.429688 172.078125 97.828125 171.996094 97.226563 C 171.742188 95.347656 171.433594 93.488281 171.085938 91.660156 C 170.976563 91.101563 170.863281 90.542969 170.746094 89.992188 C 169.320313 89.757813 167.878906 89.503906 166.421875 89.230469 L 166.398438 89.226563 C 162.589844 88.507813 158.894531 87.6875 155.363281 86.789063 C 154.289063 88.15625 153.25 89.558594 152.246094 90.992188 C 150.457031 93.554688 148.773438 96.226563 147.214844 99 L 147.054688 99.277344 L 145.601563 99.277344 L 145.757813 98.996094 L 145.863281 98.804688 C 147.511719 95.847656 149.296875 92.996094 151.207031 90.265625 C 152.117188 88.964844 153.054688 87.6875 154.019531 86.445313 C 150.914063 85.625 147.910156 84.742188 145.050781 83.804688 C 143.148438 83.183594 141.3125 82.539063 139.554688 81.875 C 127.042969 86.398438 115.972656 92.605469 107.027344 100 C 106.601563 99.800781 106.183594 99.601563 105.765625 99.398438 C 114.582031 92.015625 125.464844 85.789063 137.765625 81.183594 C 132.8125 79.226563 128.53125 77.128906 125.136719 75 C 111.589844 76.304688 98.550781 79.019531 86.226563 82.972656 C 89.425781 88.988281 95.953125 94.453125 104.832031 98.933594 L 105.515625 99.277344 L 102.824219 99.277344 L 102.1875 98.929688 C 94.0625 94.488281 88.074219 89.179688 85.023438 83.359375 C 72.816406 87.367188 61.320313 92.589844 50.75 98.851563 L 50.035156 99.277344 L 47.855469 99.277344 L 48.558594 98.847656 C 59.601563 92.152344 71.675781 86.59375 84.535156 82.367188 C 83.554688 80.25 82.964844 78.070313 82.796875 75.839844 C 82.765625 75.40625 82.75 74.972656 82.75 74.535156 C 82.75 72.820313 83.003906 71.136719 83.496094 69.488281 C 70.996094 71.121094 58.996094 73.859375 47.707031 77.554688 C 44.582031 81.328125 42.875 85.417969 42.875 89.695313 C 42.875 90.097656 42.890625 90.503906 42.917969 90.910156 C 43.121094 93.636719 44.007813 96.292969 45.488281 98.84375 L 45.742188 99.277344 L 44.300781 99.277344 C 44.21875 99.132813 44.136719 98.988281 44.058594 98.84375 C 42.683594 96.316406 41.859375 93.691406 41.65625 90.996094 C 41.625 90.5625 41.609375 90.128906 41.609375 89.691406 C 41.609375 85.683594 43 81.84375 45.566406 78.269531 C 30.28125 83.472656 16.335938 90.441406 4.25 98.78125 C 4.011719 98.945313 3.777344 99.113281 3.539063 99.277344 L 0.90625 99.277344 L 1.617188 98.777344 C 36.164063 74.730469 78.152344 60.628906 123.429688 60.628906 L 123.429688 60.625 L 123.445313 60.625 L 123.445313 60.628906 C 168.953125 60.628906 211.140625 74.875 245.792969 99.148438 L 245.972656 99.277344 L 243.742188 99.277344 L 243.550781 99.144531 C 234.9375 93.222656 225.863281 87.917969 216.398438 83.296875 L 216.4375 83.316406 C 216.445313 83.425781 216.449219 83.539063 216.449219 83.648438 C 216.449219 83.933594 216.421875 84.222656 216.367188 84.511719 C 216.203125 85.386719 215.789063 86.183594 215.144531 86.910156 C 223.636719 90.40625 231.714844 94.503906 239.300781 99.140625 L 239.527344 99.277344 L 237.347656 99.277344 L 237.109375 99.136719 C 229.90625 94.835938 222.269531 91.019531 214.265625 87.742188 C 213.050781 88.726563 211.351563 89.542969 209.238281 90.183594 C 207.808594 90.617188 206.183594 90.976563 204.382813 91.257813 C 206.730469 92.710938 209.015625 94.214844 211.230469 95.777344 C 212.769531 96.859375 214.269531 97.96875 215.742188 99.101563 L 215.96875 99.277344 L 213.855469 99.277344 L 213.621094 99.101563 C 212.59375 98.332031 211.554688 97.570313 210.492188 96.824219 C 207.882813 94.984375 205.171875 93.21875 202.367188 91.53125 C 199.683594 91.84375 196.679688 92.003906 193.410156 92.003906 C 191.960938 92.003906 190.453125 91.96875 188.90625 91.90625 C 191.003906 94.226563 192.9375 96.617188 194.695313 99.070313 L 194.84375 99.277344 L 193.265625 99.277344 L 193.113281 99.070313 C 191.285156 96.582031 189.269531 94.164063 187.085938 91.820313 C 182.433594 91.5625 177.390625 91.027344 172.09375 90.207031 Z M 170.453125 88.640625 C 170.277344 87.855469 170.09375 87.074219 169.902344 86.304688 C 168.984375 82.632813 167.878906 79.128906 166.601563 75.828125 C 166.332031 75.746094 166.0625 75.664063 165.792969 75.582031 C 163.152344 77.972656 160.636719 80.542969 158.265625 83.273438 L 158.257813 83.289063 L 158.246094 83.296875 C 157.566406 84.078125 156.898438 84.875 156.242188 85.6875 C 159.605469 86.53125 163.085938 87.296875 166.632813 87.964844 L 166.65625 87.96875 C 167.933594 88.210938 169.203125 88.433594 170.453125 88.640625 Z M 175.144531 68.246094 C 172.65625 69.925781 170.253906 71.746094 167.941406 73.703125 C 172.203125 73.136719 176.554688 72.75 180.972656 72.558594 C 183.144531 72.464844 185.277344 72.417969 187.367188 72.417969 C 188.128906 72.417969 188.886719 72.425781 189.644531 72.4375 C 190.25 72.636719 190.855469 72.835938 191.457031 73.039063 C 186.109375 71.230469 180.671875 69.628906 175.144531 68.246094 Z M 193.765625 73.835938 C 191.652344 73.742188 189.519531 73.695313 187.367188 73.695313 C 185.246094 73.695313 183.132813 73.738281 181.027344 73.832031 C 179.238281 73.90625 177.464844 74.015625 175.699219 74.15625 C 186.472656 74.929688 196.878906 76.542969 206.792969 78.902344 C 202.519531 77.074219 198.179688 75.386719 193.765625 73.835938 Z M 207.234375 79.09375 C 207.613281 79.253906 207.992188 79.417969 208.371094 79.585938 C 207.992188 79.417969 207.613281 79.253906 207.234375 79.09375 Z M 208.992188 79.859375 C 209.359375 80.019531 209.726563 80.183594 210.089844 80.34375 C 209.726563 80.183594 209.359375 80.019531 208.992188 79.859375 Z M 210.855469 80.691406 C 211.183594 80.835938 211.507813 80.988281 211.835938 81.136719 C 211.507813 80.988281 211.183594 80.839844 210.855469 80.691406 Z M 212.597656 81.488281 C 212.960938 81.65625 213.320313 81.824219 213.679688 81.996094 C 213.320313 81.824219 212.960938 81.65625 212.597656 81.488281 Z M 213.789063 82.046875 C 201.070313 78.453125 187.433594 76.128906 173.171875 75.277344 C 187.476563 77.480469 201.132813 81.261719 213.878906 86.394531 C 214.542969 85.75 214.964844 85.042969 215.109375 84.273438 C 215.144531 84.078125 215.164063 83.871094 215.164063 83.648438 C 215.164063 83.316406 215.117188 82.980469 215.027344 82.632813 C 214.617188 82.433594 214.203125 82.242188 213.789063 82.046875 Z M 40.671875 78.652344 C 42.753906 77.882813 44.863281 77.148438 47 76.445313 C 47.152344 76.265625 47.304688 76.089844 47.464844 75.910156 C 45.179688 76.785156 42.914063 77.703125 40.671875 78.652344 Z M 50.21875 74.875 C 49.941406 75.136719 49.671875 75.402344 49.410156 75.667969 C 60.351563 72.230469 71.925781 69.675781 83.957031 68.140625 C 84.320313 67.1875 84.765625 66.246094 85.289063 65.320313 L 85.363281 65.308594 C 73.261719 67.5 61.515625 70.722656 50.21875 74.875 Z M 86.054688 65.183594 L 86.925781 65.03125 C 86.324219 65.992188 85.808594 66.96875 85.386719 67.964844 C 91.695313 67.203125 98.125 66.722656 104.65625 66.542969 C 106.667969 66.488281 108.613281 66.460938 110.480469 66.460938 C 112.617188 66.460938 114.742188 66.492188 116.851563 66.558594 C 116.703125 66.058594 116.628906 65.570313 116.628906 65.089844 L 116.628906 65.082031 L 116.632813 64.972656 L 116.632813 64.964844 C 116.652344 64.210938 116.847656 63.503906 117.210938 62.84375 C 117.378906 62.542969 117.578125 62.253906 117.8125 61.972656 C 118.4375 61.957031 119.066406 61.945313 119.695313 61.9375 L 119.5625 62.039063 L 119.5625 62.042969 C 119.023438 62.484375 118.613281 62.960938 118.335938 63.460938 C 118.070313 63.941406 117.929688 64.453125 117.910156 64.984375 L 117.910156 65.089844 L 117.914063 65.089844 C 117.914063 65.582031 118.007813 66.085938 118.195313 66.601563 C 134.558594 67.210938 150.164063 69.738281 164.585938 73.894531 C 157.40625 69.570313 149.464844 65.777344 140.902344 62.609375 C 141.5625 62.664063 142.21875 62.71875 142.878906 62.78125 C 136.476563 62.199219 129.996094 61.898438 123.445313 61.898438 L 123.445313 61.902344 L 123.429688 61.902344 L 123.429688 61.898438 C 110.675781 61.898438 98.1875 63.027344 86.054688 65.183594 Z M 143.542969 62.839844 C 143.878906 62.871094 144.214844 62.90625 144.550781 62.9375 C 144.214844 62.90625 143.878906 62.871094 143.542969 62.839844 Z M 171.929688 76.183594 C 183.035156 79.914063 193.347656 84.636719 202.648438 90.203125 C 205.011719 89.910156 207.101563 89.492188 208.867188 88.957031 C 210.503906 88.460938 211.855469 87.867188 212.878906 87.183594 C 200.0625 82.0625 186.320313 78.320313 171.929688 76.183594 Z M 123.699219 74.058594 C 120.648438 71.972656 118.476563 69.871094 117.398438 67.859375 C 115.109375 67.78125 112.800781 67.746094 110.480469 67.746094 C 108.496094 67.746094 106.566406 67.769531 104.691406 67.820313 C 97.972656 68.007813 91.359375 68.511719 84.878906 69.3125 C 84.308594 71.015625 84.011719 72.761719 84.011719 74.539063 C 84.011719 74.941406 84.027344 75.347656 84.058594 75.753906 C 84.21875 77.878906 84.785156 79.957031 85.730469 81.976563 C 97.773438 78.117188 110.492188 75.421875 123.699219 74.058594 Z M 143.691406 73.03125 L 143.695313 73.03125 L 143.695313 73.035156 C 148.722656 73.035156 153.691406 73.226563 158.597656 73.601563 C 146.085938 70.433594 132.746094 68.476563 118.847656 67.914063 C 120.050781 69.828125 122.378906 71.851563 125.605469 73.871094 C 131.539063 73.316406 137.570313 73.035156 143.679688 73.035156 L 143.679688 73.03125 Z M 160.703125 74.855469 C 155.113281 74.363281 149.441406 74.109375 143.695313 74.109375 L 143.695313 74.113281 L 143.679688 74.113281 L 143.679688 74.109375 C 138.109375 74.109375 132.605469 74.347656 127.179688 74.8125 C 130.570313 76.765625 134.773438 78.703125 139.578125 80.519531 C 146.253906 78.136719 153.328125 76.222656 160.703125 74.855469 Z M 200.507813 90.429688 C 192.109375 85.542969 182.910156 81.339844 173.0625 77.925781 C 178.507813 81.816406 183.398438 86.046875 187.660156 90.5625 C 189.65625 90.664063 191.574219 90.714844 193.410156 90.714844 C 195.953125 90.714844 198.328125 90.617188 200.507813 90.429688 Z M 154.890625 85.339844 C 155.675781 84.359375 156.480469 83.394531 157.296875 82.453125 L 157.308594 82.4375 L 157.316406 82.429688 C 159.40625 80.023438 161.609375 77.738281 163.910156 75.585938 C 156.058594 76.867188 148.53125 78.773438 141.445313 81.210938 C 142.742188 81.675781 144.074219 82.136719 145.445313 82.585938 C 148.425781 83.558594 151.589844 84.484375 154.890625 85.339844 "/>
<path style=" stroke:none;fill-rule:evenodd;fill:rgb(0%,32.499695%,60.798645%);fill-opacity:1;" d="M 284.371094 98.902344 L 284.371094 109.363281 L 1.085938 109.363281 L 1.085938 98.902344 L 284.371094 98.902344 "/>
<path style=" stroke:none;fill-rule:nonzero;fill:rgb(74.899292%,15.299988%,18.399048%);fill-opacity:1;" d="M 171.839844 26.070313 C 169.539063 26.125 167.265625 26.183594 165.003906 26.242188 C 164.601563 27.828125 164.222656 29.429688 163.789063 31.054688 C 165.949219 31.039063 168.101563 31.027344 170.273438 31.011719 C 169.980469 32.308594 169.671875 33.613281 169.386719 34.929688 C 167.15625 34.914063 165.015625 34.894531 162.847656 34.878906 C 162.402344 36.558594 162.011719 38.269531 161.578125 39.984375 C 161.140625 41.722656 160.683594 43.480469 160.21875 45.257813 C 158.753906 45.1875 157.289063 45.113281 155.882813 45.042969 C 156.382813 43.066406 156.894531 41.109375 157.386719 39.191406 C 157.878906 37.277344 158.394531 35.382813 158.878906 33.519531 C 159.359375 31.683594 159.855469 29.867188 160.328125 28.070313 C 160.800781 26.292969 161.277344 24.527344 161.746094 22.789063 C 165.277344 22.648438 168.953125 22.507813 172.695313 22.359375 C 172.390625 23.585938 172.121094 24.824219 171.839844 26.070313 Z M 180.777344 46.96875 C 178.84375 46.871094 177.195313 46.433594 175.726563 45.636719 C 174.316406 44.871094 173.160156 43.824219 172.335938 42.542969 C 171.515625 41.28125 170.980469 39.863281 170.722656 38.285156 C 170.472656 36.726563 170.535156 35.136719 170.898438 33.511719 C 171.253906 31.902344 171.921875 30.382813 172.8125 28.929688 C 173.683594 27.503906 174.789063 26.207031 176.074219 25.074219 C 177.382813 23.921875 178.832031 23.03125 180.414063 22.375 C 182.015625 21.714844 183.703125 21.339844 185.515625 21.265625 C 187.402344 21.191406 189.023438 21.433594 190.492188 22.011719 C 191.953125 22.582031 193.203125 23.429688 194.261719 24.558594 C 194.773438 25.105469 195.242188 25.699219 195.589844 26.339844 C 195.9375 26.980469 196.257813 27.726563 196.503906 28.574219 C 196.953125 30.140625 197.050781 31.820313 196.792969 33.582031 C 196.65625 34.527344 196.429688 35.421875 196.160156 36.269531 C 195.894531 37.097656 195.488281 37.960938 195 38.824219 C 194.046875 40.503906 192.894531 41.992188 191.421875 43.238281 C 189.933594 44.5 188.257813 45.453125 186.410156 46.125 C 184.589844 46.789063 182.726563 47.070313 180.777344 46.96875 Z M 184.707031 25.648438 C 183.304688 25.679688 182.027344 26.070313 180.753906 26.808594 C 179.472656 27.550781 178.410156 28.503906 177.515625 29.699219 C 176.632813 30.878906 176.066406 32.097656 175.816406 33.328125 C 175.5625 34.554688 175.613281 35.828125 176.011719 37.128906 C 176.417969 38.457031 177.113281 39.578125 178.101563 40.484375 C 179.101563 41.40625 180.324219 41.898438 181.703125 41.945313 C 183.097656 41.992188 184.511719 41.578125 185.882813 40.714844 C 187.292969 39.832031 188.449219 38.695313 189.414063 37.300781 C 190.378906 35.90625 190.972656 34.59375 191.164063 33.355469 C 191.371094 32.035156 191.21875 30.753906 190.707031 29.519531 C 190.207031 28.304688 189.472656 27.335938 188.425781 26.640625 C 187.371094 25.933594 186.144531 25.613281 184.707031 25.648438 Z M 210.140625 35.746094 C 211.421875 37.691406 212.785156 39.679688 214.183594 41.71875 C 215.605469 43.792969 217.023438 45.933594 218.539063 48.109375 C 215.820313 47.976563 213.113281 47.84375 210.503906 47.71875 C 209.359375 45.699219 208.242188 43.710938 207.164063 41.777344 C 206.109375 39.875 204.996094 38.015625 203.992188 36.1875 C 203.953125 36.1875 203.953125 36.1875 203.914063 36.1875 C 203.707031 37.996094 203.46875 39.816406 203.273438 41.660156 C 203.078125 43.527344 202.867188 45.425781 202.640625 47.332031 C 200.621094 47.230469 198.644531 47.136719 196.683594 47.039063 C 196.976563 44.730469 197.277344 42.449219 197.574219 40.207031 C 197.867188 37.980469 198.179688 35.789063 198.464844 33.625 C 198.746094 31.507813 199.039063 29.410156 199.316406 27.351563 C 199.589844 25.308594 199.882813 23.285156 200.183594 21.300781 C 202.640625 21.203125 205.125 21.105469 207.691406 21.003906 C 209.714844 20.921875 211.433594 21.117188 212.898438 21.5625 C 214.40625 22.023438 215.53125 22.792969 216.324219 23.90625 C 217.125 25.03125 217.453125 26.503906 217.308594 28.320313 C 217.21875 29.453125 216.871094 30.554688 216.289063 31.621094 C 215.710938 32.691406 214.871094 33.597656 213.800781 34.339844 C 212.742188 35.074219 211.527344 35.550781 210.140625 35.746094 Z M 205.238281 24.953125 C 205.070313 26.199219 204.945313 27.464844 204.796875 28.726563 C 204.644531 30 204.480469 31.289063 204.351563 32.585938 C 204.582031 32.585938 204.828125 32.585938 205.089844 32.585938 C 206.886719 32.585938 208.300781 32.296875 209.355469 31.703125 C 210.398438 31.113281 210.972656 30.054688 211.125 28.5625 C 211.277344 27.09375 210.886719 26.117188 210.003906 25.617188 C 209.121094 25.117188 207.78125 24.886719 206.003906 24.933594 C 205.753906 24.941406 205.503906 24.949219 205.238281 24.953125 Z M 244.351563 20.445313 C 244.382813 22.570313 244.390625 24.734375 244.417969 26.921875 C 243.382813 26 242.113281 25.3125 240.636719 24.816406 C 239.21875 24.339844 237.769531 24.109375 236.277344 24.144531 C 234.203125 24.199219 232.339844 24.683594 230.75 25.59375 C 229.183594 26.492188 227.933594 27.699219 227.046875 29.191406 C 226.152344 30.6875 225.6875 32.226563 225.613281 33.804688 C 225.542969 35.386719 225.859375 36.933594 226.632813 38.449219 C 227.421875 39.996094 228.636719 41.28125 230.21875 42.28125 C 231.847656 43.3125 233.785156 43.871094 235.96875 43.941406 C 237.503906 43.992188 239.019531 43.742188 240.597656 43.175781 C 242.1875 42.609375 243.550781 41.84375 244.59375 40.894531 C 244.652344 43.328125 244.648438 45.800781 244.714844 48.308594 C 241.242188 49.445313 238.3125 49.9375 235.714844 49.800781 C 233.078125 49.664063 230.671875 49.109375 228.464844 48.144531 C 226.320313 47.210938 224.46875 45.96875 222.945313 44.433594 C 221.453125 42.929688 220.347656 41.253906 219.621094 39.414063 C 218.910156 37.605469 218.636719 35.765625 218.746094 33.890625 C 218.863281 31.957031 219.402344 30.125 220.28125 28.394531 C 221.148438 26.679688 222.371094 25.167969 223.964844 23.808594 C 225.503906 22.488281 227.316406 21.398438 229.394531 20.582031 C 231.472656 19.761719 233.804688 19.292969 236.308594 19.195313 C 239.035156 19.085938 241.71875 19.492188 244.351563 20.445313 Z M 268.917969 23.632813 C 264.339844 23.75 259.820313 23.859375 255.515625 23.972656 C 255.585938 26.097656 255.710938 28.25 255.84375 30.4375 C 260.070313 30.410156 264.488281 30.378906 269.007813 30.351563 C 269.15625 32.125 269.316406 33.925781 269.472656 35.738281 C 264.871094 35.707031 260.410156 35.667969 256.078125 35.628906 C 256.160156 37.039063 256.226563 38.46875 256.308594 39.902344 C 256.386719 41.351563 256.421875 42.816406 256.5 44.292969 C 261.148438 44.445313 265.988281 44.605469 270.953125 44.765625 C 271.128906 46.726563 271.304688 48.703125 271.546875 50.707031 C 263.441406 50.308594 255.828125 49.941406 248.484375 49.578125 C 248.402344 46.835938 248.324219 44.144531 248.253906 41.496094 C 248.179688 38.878906 248.136719 36.300781 248.082031 33.769531 C 248.027344 31.292969 247.949219 28.855469 247.894531 26.460938 C 247.839844 24.09375 247.796875 21.753906 247.765625 19.457031 C 254.359375 19.203125 261.21875 18.929688 268.449219 18.65625 C 268.628906 20.296875 268.765625 21.953125 268.917969 23.632813 "/>
<path style=" stroke:none;fill-rule:nonzero;fill:rgb(100%,100%,100%);fill-opacity:1;" d="M 169.8125 23.753906 C 167.515625 23.8125 165.238281 23.867188 162.976563 23.929688 C 162.574219 25.515625 162.195313 27.117188 161.765625 28.742188 C 163.925781 28.726563 166.074219 28.714844 168.25 28.699219 C 167.957031 29.996094 167.648438 31.300781 167.363281 32.617188 C 165.128906 32.597656 162.992188 32.582031 160.824219 32.566406 C 160.378906 34.246094 159.988281 35.957031 159.554688 37.671875 C 159.113281 39.410156 158.660156 41.167969 158.191406 42.945313 C 156.730469 42.875 155.265625 42.800781 153.855469 42.730469 C 154.355469 40.753906 154.871094 38.796875 155.363281 36.878906 C 155.855469 34.964844 156.371094 33.070313 156.855469 31.203125 C 157.335938 29.371094 157.832031 27.554688 158.304688 25.757813 C 158.777344 23.976563 159.253906 22.214844 159.71875 20.476563 C 163.25 20.335938 166.929688 20.195313 170.667969 20.046875 C 170.363281 21.273438 170.097656 22.511719 169.8125 23.753906 Z M 178.753906 44.65625 C 176.820313 44.558594 175.171875 44.121094 173.703125 43.324219 C 172.292969 42.558594 171.136719 41.511719 170.308594 40.230469 C 169.492188 38.96875 168.953125 37.550781 168.699219 35.972656 C 168.445313 34.414063 168.511719 32.824219 168.875 31.199219 C 169.230469 29.589844 169.898438 28.070313 170.785156 26.617188 C 171.660156 25.191406 172.765625 23.890625 174.050781 22.757813 C 175.359375 21.609375 176.808594 20.71875 178.390625 20.0625 C 179.992188 19.398438 181.679688 19.027344 183.492188 18.953125 C 185.378906 18.878906 186.996094 19.121094 188.46875 19.699219 C 189.929688 20.269531 191.179688 21.117188 192.238281 22.246094 C 192.75 22.792969 193.21875 23.386719 193.566406 24.027344 C 193.914063 24.667969 194.234375 25.414063 194.476563 26.257813 C 194.929688 27.828125 195.023438 29.507813 194.769531 31.269531 C 194.628906 32.214844 194.40625 33.109375 194.136719 33.953125 C 193.867188 34.785156 193.464844 35.648438 192.972656 36.511719 C 192.019531 38.1875 190.871094 39.679688 189.398438 40.925781 C 187.910156 42.183594 186.234375 43.140625 184.386719 43.8125 C 182.566406 44.476563 180.703125 44.753906 178.753906 44.65625 Z M 182.683594 23.335938 C 181.28125 23.367188 180.003906 23.757813 178.730469 24.496094 C 177.449219 25.238281 176.386719 26.191406 175.492188 27.386719 C 174.609375 28.566406 174.042969 29.78125 173.789063 31.015625 C 173.539063 32.242188 173.589844 33.515625 173.988281 34.816406 C 174.394531 36.140625 175.089844 37.265625 176.074219 38.171875 C 177.078125 39.09375 178.300781 39.585938 179.679688 39.632813 C 181.070313 39.675781 182.484375 39.265625 183.859375 38.402344 C 185.269531 37.519531 186.425781 36.382813 187.390625 34.988281 C 188.355469 33.59375 188.949219 32.28125 189.140625 31.039063 C 189.347656 29.722656 189.195313 28.441406 188.683594 27.207031 C 188.183594 25.992188 187.449219 25.023438 186.402344 24.324219 C 185.34375 23.621094 184.121094 23.300781 182.683594 23.335938 Z M 208.117188 33.433594 C 209.398438 35.378906 210.761719 37.363281 212.160156 39.40625 C 213.582031 41.480469 215 43.621094 216.515625 45.796875 C 213.796875 45.664063 211.089844 45.53125 208.480469 45.40625 C 207.335938 43.382813 206.214844 41.398438 205.140625 39.464844 C 204.085938 37.5625 202.972656 35.699219 201.96875 33.875 C 201.929688 33.875 201.929688 33.875 201.890625 33.875 C 201.683594 35.679688 201.445313 37.503906 201.25 39.347656 C 201.054688 41.214844 200.84375 43.109375 200.617188 45.015625 C 198.597656 44.917969 196.621094 44.824219 194.65625 44.726563 C 194.953125 42.414063 195.253906 40.136719 195.550781 37.894531 C 195.84375 35.667969 196.152344 33.472656 196.441406 31.308594 C 196.722656 29.191406 197.015625 27.097656 197.292969 25.039063 C 197.5625 22.996094 197.859375 20.972656 198.160156 18.988281 C 200.617188 18.890625 203.101563 18.789063 205.667969 18.691406 C 207.6875 18.609375 209.410156 18.804688 210.875 19.25 C 212.382813 19.710938 213.507813 20.480469 214.300781 21.59375 C 215.101563 22.71875 215.425781 24.1875 215.285156 26.007813 C 215.195313 27.136719 214.847656 28.242188 214.265625 29.308594 C 213.6875 30.378906 212.847656 31.285156 211.777344 32.027344 C 210.71875 32.761719 209.503906 33.238281 208.117188 33.433594 Z M 203.214844 22.640625 C 203.046875 23.886719 202.921875 25.148438 202.769531 26.410156 C 202.621094 27.683594 202.457031 28.976563 202.324219 30.273438 C 202.558594 30.273438 202.804688 30.273438 203.0625 30.273438 C 204.863281 30.273438 206.277344 29.984375 207.332031 29.386719 C 208.375 28.800781 208.949219 27.742188 209.101563 26.25 C 209.253906 24.78125 208.863281 23.804688 207.980469 23.304688 C 207.097656 22.804688 205.753906 22.574219 203.980469 22.621094 C 203.730469 22.628906 203.476563 22.636719 203.214844 22.640625 Z M 242.328125 18.132813 C 242.355469 20.257813 242.367188 22.417969 242.394531 24.609375 C 241.359375 23.683594 240.089844 22.996094 238.613281 22.503906 C 237.191406 22.027344 235.746094 21.792969 234.253906 21.832031 C 232.179688 21.886719 230.316406 22.367188 228.726563 23.28125 C 227.15625 24.179688 225.910156 25.382813 225.019531 26.878906 C 224.128906 28.375 223.660156 29.914063 223.589844 31.492188 C 223.519531 33.070313 223.835938 34.621094 224.609375 36.136719 C 225.398438 37.683594 226.613281 38.96875 228.195313 39.96875 C 229.824219 41 231.761719 41.558594 233.945313 41.628906 C 235.480469 41.679688 236.996094 41.425781 238.574219 40.863281 C 240.164063 40.292969 241.527344 39.53125 242.570313 38.582031 C 242.628906 41.015625 242.621094 43.488281 242.6875 45.996094 C 239.21875 47.128906 236.285156 47.621094 233.691406 47.488281 C 231.050781 47.351563 228.648438 46.796875 226.441406 45.832031 C 224.296875 44.898438 222.445313 43.65625 220.921875 42.121094 C 219.429688 40.617188 218.324219 38.9375 217.597656 37.101563 C 216.886719 35.292969 216.613281 33.453125 216.722656 31.578125 C 216.839844 29.644531 217.378906 27.8125 218.253906 26.082031 C 219.125 24.367188 220.347656 22.855469 221.9375 21.492188 C 223.476563 20.175781 225.289063 19.085938 227.367188 18.269531 C 229.449219 17.449219 231.78125 16.980469 234.285156 16.878906 C 237.011719 16.769531 239.695313 17.175781 242.328125 18.132813 Z M 266.894531 21.320313 C 262.3125 21.433594 257.796875 21.546875 253.492188 21.65625 C 253.5625 23.785156 253.6875 25.9375 253.820313 28.125 C 258.046875 28.09375 262.464844 28.066406 266.984375 28.035156 C 267.132813 29.8125 267.292969 31.613281 267.449219 33.425781 C 262.84375 33.390625 258.386719 33.351563 254.054688 33.316406 C 254.136719 34.726563 254.203125 36.152344 254.28125 37.589844 C 254.363281 39.035156 254.398438 40.503906 254.476563 41.980469 C 259.125 42.132813 263.964844 42.292969 268.925781 42.453125 C 269.101563 44.414063 269.28125 46.390625 269.519531 48.394531 C 261.417969 47.996094 253.804688 47.625 246.460938 47.261719 C 246.378906 44.523438 246.300781 41.828125 246.226563 39.183594 C 246.15625 36.566406 246.113281 33.988281 246.058594 31.453125 C 246.003906 28.980469 245.925781 26.539063 245.871094 24.144531 C 245.8125 21.777344 245.773438 19.441406 245.742188 17.144531 C 252.335938 16.890625 259.195313 16.617188 266.425781 16.339844 C 266.605469 17.984375 266.742188 19.640625 266.894531 21.320313 "/>
</g>
</svg>
